<?xml version="1.0" encoding="iso-8859-1"?>
<!-- Generator: Adobe Illustrator 19.0.0, SVG Export Plug-In . SVG Version: 6.00 Build 0)  -->
<svg version="1.1" id="Capa_1" xmlns="http://www.w3.org/2000/svg" xmlns:xlink="http://www.w3.org/1999/xlink" x="0px" y="0px"
	 viewBox="0 0 511.998 511.998" style="enable-background:new 0 0 511.998 511.998;" xml:space="preserve">
<circle style="fill:#6AAF50;" cx="255.999" cy="255.997" r="255.997"/>
<path style="fill:#528443;" d="M256.002,103.744c-90.435,0-163.746,61.886-163.746,138.227c0,47.266,28.11,88.984,70.98,113.91
	c-6.627,16.977-18.077,39.179-33.072,51.453l103.702,103.702c7.297,0.625,14.678,0.963,22.137,0.963
	c132.492,0,241.474-100.651,254.659-229.662L378.16,149.837l-0.05,0.05C348.126,121.572,304.533,103.744,256.002,103.744z"/>
<path style="fill:#FFFFFF;" d="M256.002,103.744c-90.435,0-163.746,61.886-163.746,138.227c0,47.266,28.11,88.984,70.98,113.91
	c-6.627,16.977-18.077,39.179-33.072,51.453c29.647-8.118,54.665-20.104,72.531-34.634c16.712,4.855,34.644,7.497,53.308,7.497
	c90.435,0,163.746-61.886,163.746-138.227S346.437,103.744,256.002,103.744z"/>
<g>
</g>
<g>
</g>
<g>
</g>
<g>
</g>
<g>
</g>
<g>
</g>
<g>
</g>
<g>
</g>
<g>
</g>
<g>
</g>
<g>
</g>
<g>
</g>
<g>
</g>
<g>
</g>
<g>
</g>
</svg>
